<svg xmlns="http://www.w3.org/2000/svg" xmlns:xlink="http://www.w3.org/1999/xlink" width="40.835" height="45.891" viewBox="0 0 40.835 45.891">
  <defs>
    <clipPath id="clip-path">
      <rect id="Rectangle_43804" data-name="Rectangle 43804" width="7.953" height="9.163" fill="#fff"/>
    </clipPath>
  </defs>
  <g id="Group_103722" data-name="Group 103722" transform="translate(-5200.959 -9316)">
    <path id="Path_63913" data-name="Path 63913" d="M118,131.851a6.75,6.75,0,0,0-5.862,10.1l11.7-6.741A6.748,6.748,0,0,0,118,131.847" transform="translate(5103.375 9200.343)" fill="#4187c5" fill-rule="evenodd"/>
    <path id="Path_63914" data-name="Path 63914" d="M6.855,22.946a13.56,13.56,0,0,1,25.3-6.786l8.173-4.706a3.9,3.9,0,0,0-1.478-1.439Q30.7,5.314,22.541.621A4,4,0,0,0,18.2.664c-2.163,1.274-13,7.479-16.223,9.349A3.77,3.77,0,0,0,0,13.491Q0,22.946,0,32.4a4.071,4.071,0,0,0,.477,2l8.175-4.707a13.5,13.5,0,0,1-1.8-6.748" transform="translate(5200.963 9316)" fill="#4187c5" fill-rule="evenodd"/>
    <path id="Path_63915" data-name="Path 63915" d="M118.5,189.738a6.75,6.75,0,0,0,11.744-.039l-5.821-3.37Z" transform="translate(5097.014 9152.557)" fill="#003e75"/>
    <path id="Path_63916" data-name="Path 63916" d="M23.825,248.416A13.553,13.553,0,0,1,12.062,241.6l-8.175,4.707a3.885,3.885,0,0,0,1.5,1.478c3.228,1.87,14.061,8.071,16.224,9.352a4.005,4.005,0,0,0,4.341.043q8.151-4.706,16.312-9.4a3.886,3.886,0,0,0,1.5-1.478l-8.16-4.728a13.555,13.555,0,0,1-11.776,6.835" transform="translate(5197.554 9104.089)" fill="#003e75"/>
    <path id="Path_63920" data-name="Path 63920" d="M75.267,93.294a6.752,6.752,0,1,1-.044-6.7l5.9-3.4a13.559,13.559,0,1,0,.035,13.51Z" transform="translate(5151.995 9248.962)" fill="#fff"/>
    <rect id="Rectangle_43802" data-name="Rectangle 43802" width="40.83" height="45.89" transform="translate(5200.962 9316)" fill="none"/>
    <g id="Group_103719" data-name="Group 103719" transform="translate(5221.44 9327.452)">
      <path id="Path_63917" data-name="Path 63917" d="M187.086,95.295a4.05,4.05,0,0,0-.5-2.04l-19.852,11.43L186.612,116.2a4.08,4.08,0,0,0,.477-2V95.293m-6.76,10.215h-1.553v1.553h-1.553v-1.553H175.67v-1.553h1.553V102.4h1.553v1.553h1.553Zm5.667,0h-1.554v1.553h-1.554v-1.553h-1.55v-1.553h1.553V102.4h1.551v1.553H186Z" transform="translate(-166.736 -93.255)" fill="#005192"/>
      <rect id="Rectangle_43803" data-name="Rectangle 43803" width="11.53" height="7.095" transform="translate(7.936 8.06)" fill="#095192"/>
    </g>
    <g id="Group_103721" data-name="Group 103721" transform="translate(5231.616 9334.568)">
      <g id="Group_103720" data-name="Group 103720" clip-path="url(#clip-path)">
        <path id="Path_63921" data-name="Path 63921" d="M7.716,3.673H6.74a.1.1,0,0,0-.1.071L6.376,5.419c-.009.056.019.084.089.084H7.21a.2.2,0,0,1,.225.225v.943A.2.2,0,0,1,7.21,6.9H6.235a.1.1,0,0,0-.1.071l-.31,1.984a.217.217,0,0,1-.239.211L4.4,9.148a.214.214,0,0,1-.169-.063.184.184,0,0,1-.029-.177L4.5,6.98Q4.532,6.9,4.415,6.9H2.773a.1.1,0,0,0-.1.071l-.31,1.984a.217.217,0,0,1-.239.211L.942,9.147a.215.215,0,0,1-.169-.063.183.183,0,0,1-.028-.177l.3-1.928c.019-.056-.01-.084-.089-.084H.225A.2.2,0,0,1,0,6.671V5.728A.2.2,0,0,1,.225,5.5h.958a.1.1,0,0,0,.1-.084l.253-1.657q.028-.089-.084-.089h-.7A.2.2,0,0,1,.52,3.444V2.491a.2.2,0,0,1,.225-.225h.939a.1.1,0,0,0,.1-.071L2.1.21A.217.217,0,0,1,2.337,0L3.518.013a.214.214,0,0,1,.169.064.184.184,0,0,1,.028.177l-.3,1.926c-.009.056.019.089.089.089H5.152a.1.1,0,0,0,.1-.071L5.56.21A.217.217,0,0,1,5.8,0L6.981.013A.215.215,0,0,1,7.15.077a.184.184,0,0,1,.028.177l-.3,1.926c-.01.056.019.089.084.089h.76a.2.2,0,0,1,.225.225l-.013.953a.2.2,0,0,1-.225.225M4.743,5.419,5,3.758c.019-.057-.01-.089-.089-.089H3.281a.1.1,0,0,0-.1.071L2.917,5.415c-.009.056.019.084.089.084H4.644c.047,0,.08-.028.1-.084" transform="translate(0 0)" fill="#fff"/>
      </g>
    </g>
  </g>
</svg>
