<svg width="29" height="40" viewBox="0 0 29 40" fill="none" xmlns="http://www.w3.org/2000/svg">
<path d="M14.4617 40L3.04541 36.805L0.5 7.87256H28.5004L25.955 36.7253L14.4617 40Z" fill="#264DE4"/>
<path d="M23.6194 34.887L25.824 9.92847H14.2511V37.4837L23.6194 34.887Z" fill="#2965F1"/>
<path d="M6.2493 20.8873L6.56438 24.509H14.5945V20.8873H6.2493ZM5.61914 13.644L5.93422 17.2657H14.5945V13.644H5.61914ZM14.5945 30.2556L10.5754 29.1537L10.3391 26.3216H6.72103L7.27242 31.9116L14.5945 33.9587V30.2556Z" fill="#EBEBEB"/>
<path d="M7.19189 0H11.3516V1.81082H8.93191V3.62164H11.3516V5.43246H7.19189V0ZM12.1845 0H16.3442V1.57451H13.9236V1.88959H16.3442V5.51123H12.1845V3.85795H14.6051V3.54021H12.1845V0ZM17.1771 0H21.3368V1.57451H18.9162V1.88959H21.3368V5.51123H17.1771V3.85795H19.5977V3.54021H17.1762L17.1771 0Z" fill="black"/>
<path d="M22.675 20.8863L23.3052 13.6431H14.3299V17.2647H19.3685L19.0534 20.8863H14.3299V24.508H18.7383L18.3445 29.1527L14.3299 30.2546V34.0338L21.6519 31.9867L21.7307 31.3565L22.5963 21.9095L22.675 20.8863Z" fill="white"/>
</svg>
