<svg id="Group_105281" data-name="Group 105281" xmlns="http://www.w3.org/2000/svg" xmlns:xlink="http://www.w3.org/1999/xlink" width="84.483" height="29.437" viewBox="0 0 84.483 29.437">
  <defs>
    <clipPath id="clip-path">
      <rect id="Rectangle_44661" data-name="Rectangle 44661" width="84.483" height="29.437" fill="none"/>
    </clipPath>
  </defs>
  <g id="Group_105280" data-name="Group 105280" clip-path="url(#clip-path)">
    <path id="Path_78115" data-name="Path 78115" d="M10.033,0h4.5V21.3c-4.313.705-8.444,1.152-11.4-.5-3.805-2.128-4.111-8.889-1.1-11.9A8.917,8.917,0,0,1,9.934,7V.3c-.009-.142-.017-.283.1-.3m-5.4,14.4c-.015,2.792,2.033,4.457,5.3,3.7V10.7c-3.308-1.008-5.286,1.031-5.3,3.7" transform="translate(0)" fill="#1a1818" fill-rule="evenodd"/>
    <rect id="Rectangle_44660" data-name="Rectangle 44660" width="4.5" height="4.7" transform="translate(17.333)" fill="#1a1818"/>
    <path id="Path_78116" data-name="Path 78116" d="M657.565,63.382c3.746-.4,6.572,1.253,7.7,3.8,1.924,4.346-.106,9.334-3.2,10.8a9.163,9.163,0,0,1-4.8.7c-4.689-.409-7.647-5.188-6-10.5a7.222,7.222,0,0,1,.7-1.6c1.019-1.733,2.74-2.894,5.6-3.2m-.2,11.5c4.906,1.906,5.448-8.781.5-7.8-3.073.609-2.974,6.838-.5,7.8" transform="translate(-581.533 -56.582)" fill="#1a1818" fill-rule="evenodd"/>
    <path id="Path_78117" data-name="Path 78117" d="M234.761,77.956c-3.717.214-9.366,1.48-11.4-1a5.047,5.047,0,0,1,0-5.6c1.378-1.762,4.386-2.146,7.1-2.4a2.571,2.571,0,0,0-.2-2c-2.483-.632-4.949.348-6.7,1.1v-3.5c2.644-1.215,8.768-2.494,10.6.3.962,1.467.6,4.026.6,6.3Zm-7.9-4.9c-1.245,2.092,1.882,2.593,3.9,2v-3.1c-1.55.216-3.314.116-3.9,1.1" transform="translate(-198.828 -56.457)" fill="#1a1818" fill-rule="evenodd"/>
    <path id="Path_78118" data-name="Path 78118" d="M372.691,78.6h-4.5V72.8c0-1.91.309-4.331-.7-5.1-.79-.6-2.665-.3-3.8,0V78.6h-4.5V64.7c4.6-1.195,12.9-2.476,13.5,3.3.294,2.848-.218,7.12,0,10.6" transform="translate(-320.958 -56.9)" fill="#1a1818" fill-rule="evenodd"/>
    <path id="Path_78119" data-name="Path 78119" d="M516.237,64.538a29.362,29.362,0,0,1-1.5,3.3c-.464.1-.866-.184-1.1,0-.1,4.874,1.038,11.483-.9,15-1.167,2.118-3.315,3.476-6.6,3.7a13.435,13.435,0,0,1-6-.9v-4.2c2.053,1.2,7.24,2.176,8.7-.3a7.558,7.558,0,0,0,.6-2.6c-.94.049-1.853.485-3,.5-4.716.062-7.634-3.693-6.5-8.9a7.089,7.089,0,0,1,3.2-4.6c3.284-2,8.332-1.85,13.1-1m-11.3,9.5c.757,1.225,2.808,1.685,4.5.9q-.139-3.51-.1-7.2c-3.889-1.027-6.207,3.377-4.4,6.3" transform="translate(-446.504 -57.138)" fill="#1a1818" fill-rule="evenodd"/>
    <path id="Path_78120" data-name="Path 78120" d="M129.566,66.513c-.005,3.314,0,5.695,0,9.72-.191,3.956-.147,7.106-1.6,9a8.413,8.413,0,0,1-1.4,1.3,4.845,4.845,0,0,1-1.7,1,8.092,8.092,0,0,1-2.2-.9,16.1,16.1,0,0,0-2.1-1c1.712-1.061,3.337-1.856,4-4,.577-1.865.5-4.567.5-7.2,0-2.6.012-5.623.012-7.919Z" transform="translate(-107.733 -59.433)" fill="#1a1818" fill-rule="evenodd"/>
  </g>
</svg>
