<svg xmlns="http://www.w3.org/2000/svg" width="48.991" height="14.544" viewBox="0 0 48.991 14.544">
  <g id="express-seeklogo.com" transform="translate(0.25 0.25)">
    <path id="Path_78343" data-name="Path 78343" d="M.316,10.951v-5.4H7.054V5.239H.316V.316H7.48V0H0V11.267H7.543v-.316Zm13.3-7.8L10.825,6.833,8.095,3.156h-.41l2.951,3.913L7.4,11.267h.379l3.045-3.961,3.061,3.961h.394l-3.251-4.2L14,3.156Zm1.61,10.888V8.994h.032a3.24,3.24,0,0,0,1.12,1.775,3.3,3.3,0,0,0,2.13.671,3.083,3.083,0,0,0,2.564-1.262,4.3,4.3,0,0,0,.663-1.357A5.7,5.7,0,0,0,21.965,7.2a5.745,5.745,0,0,0-.237-1.688,4.042,4.042,0,0,0-.686-1.341,3.157,3.157,0,0,0-1.089-.884,3.217,3.217,0,0,0-1.444-.316,3.5,3.5,0,0,0-1.144.181,3.062,3.062,0,0,0-.939.513,3.473,3.473,0,0,0-.71.781,3.6,3.6,0,0,0-.458.986h-.032V3.156h-.316V14.044Zm3.282-2.9a3.024,3.024,0,0,1-2.383-1.018,4.284,4.284,0,0,1-.9-2.927,5.018,5.018,0,0,1,.221-1.5,3.882,3.882,0,0,1,.639-1.247A3.069,3.069,0,0,1,17.121,3.6a3,3,0,0,1,1.389-.316A2.891,2.891,0,0,1,19.89,3.6a2.8,2.8,0,0,1,.978.86A4,4,0,0,1,21.453,5.7a5.491,5.491,0,0,1,.2,1.491,5.623,5.623,0,0,1-.181,1.412,4.037,4.037,0,0,1-.56,1.262,3.049,3.049,0,0,1-.97.915,2.726,2.726,0,0,1-1.428.355Zm5.192.126V6.675a4.479,4.479,0,0,1,.189-1.294,3.171,3.171,0,0,1,.584-1.112,2.736,2.736,0,0,1,1-.757,3.041,3.041,0,0,1,1.444-.229V2.967a3.908,3.908,0,0,0-1.27.158,3.086,3.086,0,0,0-.939.473,2.42,2.42,0,0,0-.631.7,3.14,3.14,0,0,0-.347.86H23.7v-2h-.316v8.111Zm3.614-3.992H34.1a5.621,5.621,0,0,0-.166-1.61A4,4,0,0,0,33.3,4.292a3.213,3.213,0,0,0-1.12-.963,3.449,3.449,0,0,0-1.633-.363,3.32,3.32,0,0,0-2.462,1.112A4.2,4.2,0,0,0,27.3,5.412a5.039,5.039,0,0,0-.3,1.8A6.6,6.6,0,0,0,27.2,8.892a3.937,3.937,0,0,0,.631,1.357,2.847,2.847,0,0,0,1.1.892,3.629,3.629,0,0,0,1.617.3,3.548,3.548,0,0,0,2.335-.781,3.233,3.233,0,0,0,1.12-2.2H33.69A3.034,3.034,0,0,1,32.64,10.47a3.306,3.306,0,0,1-2.122.671,3.258,3.258,0,0,1-1.468-.3,2.658,2.658,0,0,1-.978-.821,3.578,3.578,0,0,1-.56-1.223,6.583,6.583,0,0,1-.2-1.523Zm6.47-.316h-6.47a4.881,4.881,0,0,1,.316-1.531,3.8,3.8,0,0,1,.7-1.16,2.934,2.934,0,0,1,1.01-.734,3.051,3.051,0,0,1,1.239-.252,3.136,3.136,0,0,1,1.389.292,2.867,2.867,0,0,1,1,.8,3.514,3.514,0,0,1,.608,1.176,4.8,4.8,0,0,1,.205,1.412Zm6.864-1.4h.316a2.347,2.347,0,0,0-.789-1.972,3.4,3.4,0,0,0-2.146-.615,3.764,3.764,0,0,0-1.278.189,2.556,2.556,0,0,0-.852.489,1.76,1.76,0,0,0-.473.663A1.9,1.9,0,0,0,35.283,5a2.045,2.045,0,0,0,.237,1.057,1.558,1.558,0,0,0,.742.615,5.688,5.688,0,0,0,.789.284q.442.126,1.026.268.521.126,1.026.252a3.7,3.7,0,0,1,.892.339,1.927,1.927,0,0,1,.631.544,1.426,1.426,0,0,1,.245.868,1.544,1.544,0,0,1-.245.884,1.971,1.971,0,0,1-.623.592,2.774,2.774,0,0,1-.844.331,4.211,4.211,0,0,1-.907.1,3.349,3.349,0,0,1-2.2-.639,2.476,2.476,0,0,1-.765-2.012h-.316A2.8,2.8,0,0,0,35.8,10.73a3.682,3.682,0,0,0,2.454.71,4.791,4.791,0,0,0,1.049-.118,2.918,2.918,0,0,0,.947-.387,2.14,2.14,0,0,0,.679-.694,1.962,1.962,0,0,0,.26-1.041,1.752,1.752,0,0,0-.229-.947,1.919,1.919,0,0,0-.6-.6,3.181,3.181,0,0,0-.836-.371q-.465-.134-.939-.26-.663-.174-1.16-.3a7.038,7.038,0,0,1-.923-.3,1.566,1.566,0,0,1-.655-.5A1.507,1.507,0,0,1,35.6,5a2.173,2.173,0,0,1,.063-.394,1.415,1.415,0,0,1,.3-.576,2.018,2.018,0,0,1,.726-.521,3.222,3.222,0,0,1,1.341-.229,4.2,4.2,0,0,1,1.065.126,2.215,2.215,0,0,1,.828.4,1.831,1.831,0,0,1,.537.7,2.559,2.559,0,0,1,.189,1.041Zm7.306,0h.316a2.347,2.347,0,0,0-.789-1.972,3.4,3.4,0,0,0-2.146-.615,3.764,3.764,0,0,0-1.278.189,2.556,2.556,0,0,0-.852.489,1.76,1.76,0,0,0-.473.663A1.9,1.9,0,0,0,42.589,5a2.045,2.045,0,0,0,.237,1.057,1.558,1.558,0,0,0,.742.615,5.688,5.688,0,0,0,.789.284q.442.126,1.026.268.521.126,1.026.252a3.7,3.7,0,0,1,.892.339,1.927,1.927,0,0,1,.631.544,1.426,1.426,0,0,1,.245.868,1.545,1.545,0,0,1-.245.884,1.971,1.971,0,0,1-.623.592,2.774,2.774,0,0,1-.844.331,4.211,4.211,0,0,1-.907.1,3.349,3.349,0,0,1-2.2-.639,2.476,2.476,0,0,1-.765-2.012h-.316A2.8,2.8,0,0,0,43.1,10.73a3.682,3.682,0,0,0,2.454.71,4.791,4.791,0,0,0,1.049-.118,2.918,2.918,0,0,0,.947-.387,2.14,2.14,0,0,0,.679-.694,1.962,1.962,0,0,0,.26-1.041,1.752,1.752,0,0,0-.229-.947,1.919,1.919,0,0,0-.6-.6,3.181,3.181,0,0,0-.836-.371q-.466-.134-.939-.26-.663-.174-1.16-.3a7.038,7.038,0,0,1-.923-.3,1.566,1.566,0,0,1-.655-.5A1.507,1.507,0,0,1,42.905,5a2.173,2.173,0,0,1,.063-.394,1.415,1.415,0,0,1,.3-.576,2.018,2.018,0,0,1,.726-.521,3.222,3.222,0,0,1,1.341-.229,4.2,4.2,0,0,1,1.065.126,2.215,2.215,0,0,1,.828.4,1.831,1.831,0,0,1,.537.7,2.559,2.559,0,0,1,.189,1.041Z" fill="#222" stroke="#000" stroke-width="0.5"/>
  </g>
</svg>
