<svg width="28" height="40" viewBox="0 0 28 40" fill="none" xmlns="http://www.w3.org/2000/svg">
<g clip-path="url(#clip0_23_7)">
<path d="M2.51074 36.7972L0 7.81274H27.619L25.1083 36.7972L13.7716 40L2.51074 36.7972Z" fill="#E44D26"/>
<path d="M13.8474 37.5805L22.8975 34.9255L25.104 10.2341H13.8474V37.5805Z" fill="#F16529"/>
<path d="M13.8483 20.9373H9.28019L8.90009 17.3433H13.8457V13.7502H5.09821L5.25076 14.6875L6.08768 24.5313H13.8449L13.8483 20.9373Z" fill="#EBEBEB"/>
<path d="M13.8483 30.2322H13.7725L9.968 29.1384L9.7396 26.2498H6.23938L6.69619 31.8748L13.7725 33.9103H13.8483V30.2322Z" fill="#EBEBEB"/>
<path d="M2.58658 0H4.33626V1.79654H5.93424V0H7.68391V5.3905H5.93424V3.59396H4.33626V5.3905H2.58658V0Z" fill="black"/>
<path d="M10.0438 1.79654H8.5217V0H13.3148V1.79654H11.797V5.3905H10.0473V1.79654H10.0438Z" fill="black"/>
<path d="M14.0759 0H15.9023L17.0434 1.8753L18.1846 0H20.011V5.3905H18.2613V2.73552L17.1193 4.60905H17.0434L15.8255 2.73463V5.38962H14.1517L14.0759 0Z" fill="black"/>
<path d="M20.8479 0H22.5975V3.59396H25.1083V5.3905H20.8479V0Z" fill="black"/>
<path d="M13.7716 20.9373V24.5313H18.032L17.6502 29.1403L13.7716 30.2298V33.9016L20.8479 31.8661L20.9237 31.3192L21.7606 21.9444L21.8365 20.9285H13.7716V20.9373Z" fill="white"/>
<path d="M13.7716 13.7502V17.3442H22.1408L22.2166 16.5628L22.3692 14.6875L22.445 13.7502H13.7716Z" fill="white"/>
</g>
<defs>
<clipPath id="clip0_23_7">
<rect width="27.619" height="40" fill="white"/>
</clipPath>
</defs>
</svg>
