<svg xmlns="http://www.w3.org/2000/svg" width="32.581" height="44.178" viewBox="0 0 32.581 44.178">
  <g id="java-seeklogo.com" transform="translate(-0.517 -0.371)">
    <path id="Path_78043" data-name="Path 78043" d="M68.075,267.473s-1.688.982,1.2,1.314a25.28,25.28,0,0,0,9.148-.388,15.916,15.916,0,0,0,2.431,1.187c-8.648,3.706-19.572-.215-12.78-2.113" transform="translate(-57.065 -232.937)" fill="#5382a1"/>
    <path id="Path_78044" data-name="Path 78044" d="M58.081,229.659s-1.893,1.4,1,1.7a35.686,35.686,0,0,0,11.8-.567A5.238,5.238,0,0,0,72.7,231.9c-10.456,3.057-22.1.241-14.619-2.242" transform="translate(-48.128 -199.96)" fill="#5382a1"/>
    <path id="Path_78045" data-name="Path 78045" d="M130.616,83.014c2.131,2.453-.56,4.661-.56,4.661s5.411-2.793,2.926-6.291c-2.321-3.262-4.1-4.882,5.534-10.47,0,0-15.123,3.777-7.9,12.1" transform="translate(-111.754 -61.52)" fill="#e76f00"/>
    <path id="Path_78046" data-name="Path 78046" d="M30.3,292.894s1.249,1.029-1.376,1.826c-4.992,1.512-20.776,1.969-25.161.06-1.576-.686,1.38-1.637,2.309-1.837a6,6,0,0,1,1.524-.171c-1.753-1.235-11.33,2.425-4.865,3.473,17.632,2.859,32.142-1.288,27.569-3.351" transform="translate(0 -254.781)" fill="#5382a1"/>
    <path id="Path_78047" data-name="Path 78047" d="M36.011,190.431s-8.029,1.907-2.843,2.6a60.308,60.308,0,0,0,10.62-.114c3.323-.28,6.659-.876,6.659-.876a14.092,14.092,0,0,0-2.019,1.081c-8.153,2.144-23.9,1.147-19.37-1.047a15.192,15.192,0,0,1,6.953-1.643" transform="translate(-24.189 -165.743)" fill="#5382a1"/>
    <path id="Path_78048" data-name="Path 78048" d="M200.371,195.621c8.288-4.307,4.456-8.446,1.781-7.888a6.205,6.205,0,0,0-.948.255,1.51,1.51,0,0,1,.708-.546c5.292-1.86,9.361,5.487-1.708,8.4a.721.721,0,0,0,.167-.217" transform="translate(-174.146 -162.882)" fill="#5382a1"/>
    <path id="Path_78049" data-name="Path 78049" d="M92.813.371S97.4,4.963,88.46,12.024c-7.172,5.664-1.635,8.893,0,12.583-4.186-3.777-7.259-7.1-5.2-10.2C86.284,9.868,94.665,7.665,92.813.371" transform="translate(-71.585)" fill="#e76f00"/>
    <path id="Path_78050" data-name="Path 78050" d="M52.685,317.073c7.956.509,20.173-.283,20.462-4.047,0,0-.556,1.427-6.575,2.56a65.409,65.409,0,0,1-20.133.31s1.017.842,6.246,1.177" transform="translate(-40.049 -272.663)" fill="#5382a1"/>
  </g>
</svg>
