<svg xmlns="http://www.w3.org/2000/svg" width="36.591" height="36.591" viewBox="0 0 36.591 36.591">
  <g id="javascript-logo" transform="translate(-0.169)">
    <rect id="Rectangle_44134" data-name="Rectangle 44134" width="36.591" height="36.591" transform="translate(0.169)" fill="#f7df1e"/>
    <path id="Path_74373" data-name="Path 74373" d="M180.907,297.937a3.765,3.765,0,0,0,3.41,2.1c1.432,0,2.348-.716,2.348-1.705,0-1.185-.94-1.605-2.517-2.295l-.864-.371c-2.495-1.063-4.152-2.394-4.152-5.209,0-2.593,1.976-4.567,5.063-4.567a5.11,5.11,0,0,1,4.917,2.768l-2.692,1.729a2.351,2.351,0,0,0-2.225-1.482,1.5,1.5,0,0,0-1.654,1.482c0,1.037.642,1.457,2.126,2.1l.864.37c2.937,1.26,4.6,2.544,4.6,5.431,0,3.113-2.445,4.818-5.729,4.818a6.642,6.642,0,0,1-6.3-3.535Zm-12.212.3c.543.964,1.037,1.778,2.225,1.778,1.136,0,1.852-.444,1.852-2.172V286.087h3.457v11.8c0,3.58-2.1,5.209-5.162,5.209a5.367,5.367,0,0,1-5.186-3.158Z" transform="translate(-156.118 -269.195)"/>
  </g>
</svg>
