<svg id="mongodb" xmlns="http://www.w3.org/2000/svg" xmlns:xlink="http://www.w3.org/1999/xlink" width="148.765" height="42.663" viewBox="0 0 148.765 42.663">
  <defs>
    <linearGradient id="linear-gradient" x1="-6.161" y1="-5.923" x2="-8.532" y2="-5.926" gradientUnits="objectBoundingBox">
      <stop offset="0.231" stop-color="#9b9a75"/>
      <stop offset="0.563" stop-color="#9c9b77"/>
      <stop offset="0.683" stop-color="#a2a17e"/>
      <stop offset="0.768" stop-color="#abaa89"/>
      <stop offset="0.837" stop-color="#b8b79a"/>
      <stop offset="0.896" stop-color="#cac8b0"/>
      <stop offset="0.948" stop-color="#dfddcb"/>
      <stop offset="0.994" stop-color="#f8f6eb"/>
      <stop offset="1" stop-color="#fbf9ef"/>
    </linearGradient>
    <linearGradient id="linear-gradient-2" x1="-3.642" y1="-5.198" x2="-5.639" y2="-6.108" gradientUnits="objectBoundingBox">
      <stop offset="0" stop-color="#599e4c"/>
      <stop offset="1" stop-color="#498e41"/>
    </linearGradient>
    <linearGradient id="linear-gradient-3" x1="-2.434" y1="-5.773" x2="-3.816" y2="-5.527" gradientUnits="objectBoundingBox">
      <stop offset="0" stop-color="#4fa346"/>
      <stop offset="0.24" stop-color="#59a84f"/>
      <stop offset="0.651" stop-color="#75b667"/>
      <stop offset="1" stop-color="#91c47f"/>
    </linearGradient>
  </defs>
  <path id="Path_78399" data-name="Path 78399" d="M30.365,56.8l-1.108-.367s.141-5.607-1.881-6c-1.333-1.545.205-65.992,5.049-.22a4,4,0,0,0-1.972,2.246A20.778,20.778,0,0,0,30.365,56.8Z" transform="translate(-20.162 -15.498)" fill="url(#linear-gradient)"/>
  <path id="Path_78400" data-name="Path 78400" d="M37.968,36.221s9.626-6.339,7.37-19.506c-2.171-9.566-7.3-12.71-7.85-13.911A14.427,14.427,0,0,1,36.271.449l.41,26.652S35.834,35.239,37.968,36.221Z" transform="translate(-27.168 -0.337)" fill="url(#linear-gradient-2)"/>
  <path id="Path_78401" data-name="Path 78401" d="M8.53,36.239S-.5,30.08.021,19.212,6.918,3,8.16,2.031A2.543,2.543,0,0,0,9.058,0c.563,1.209.469,18.058.529,20.027C9.818,27.694,9.162,34.792,8.53,36.239Z" transform="translate(0.001 -0.001)" fill="url(#linear-gradient-3)"/>
  <path id="Path_78402" data-name="Path 78402" d="M443.066,65c.517,0,2.484.09,3.4.09,1.7,0,2.891-.09,6.087-.09a9.862,9.862,0,0,1,6.545,2.1,8.741,8.741,0,0,1,2.983,6.884,8.945,8.945,0,0,1-3.713,7.726,12.322,12.322,0,0,1-7.7,2.164c-1.826,0-4.962-.06-7.58-.09h-.036c-.121-.241.224-1.178.438-1.2a3.928,3.928,0,0,0,1.228-.243c.552-.227.683-.509.744-1.5.091-1.864.061-4.088.061-6.614,0-1.8.03-5.321-.031-6.433-.091-.932-.486-1.172-1.278-1.353a16.943,16.943,0,0,0-1.7-.271C442.445,65.988,442.914,65.176,443.066,65Zm6.076,16.715a5.427,5.427,0,0,0,3.044.721,5.934,5.934,0,0,0,4.292-1.533c1.43-1.293,2.4-3.277,2.4-6.434a7.653,7.653,0,0,0-3.531-6.944,9.448,9.448,0,0,0-5.053-1.172,4.2,4.2,0,0,0-1.492.18.789.789,0,0,0-.274.421c-.061.541-.061,4.659-.061,7.094,0,2.5,0,5.982.061,6.4A1.846,1.846,0,0,0,449.142,81.711Z" transform="translate(-331.451 -48.685)" fill="#c1bfbe"/>
  <path id="Path_78403" data-name="Path 78403" d="M529.188,65c.274,0,1.084.09,3.154.09,1.948,0,3.531-.06,5.418-.06,2.344,0,5.571.842,5.571,4.329a4.213,4.213,0,0,1-2.8,3.758c-.092.03-.092.09,0,.12,2.252.571,4.231,1.954,4.231,4.6,0,2.585-1.613,4.209-3.957,5.231a12.623,12.623,0,0,1-4.993.841c-1.37,0-5.04-.15-7.08-.12-.214-.091.2-1.053.377-1.2a5.709,5.709,0,0,0,1.381-.216c.73-.18.817-.416.908-1.5.061-.932.061-4.269.061-6.644,0-3.247.03-5.441,0-6.523-.031-.842-.335-1.113-.914-1.263-.456-.09-1.217-.18-1.826-.271C528.567,66.018,529.035,65.116,529.188,65Zm12.408,13.5c0-2.645-1.948-4.148-5.51-4.148a13.788,13.788,0,0,0-1.552.03c-.091.03-.182.09-.182.15,0,1.894-.031,4.93.06,6.133a2.022,2.022,0,0,0,.883,1.443,6.126,6.126,0,0,0,2.344.331A3.656,3.656,0,0,0,541.6,78.494Zm-6.91-12.025c-.121.03-.274.331-.274.481-.03,1.082-.06,3.908-.06,5.862a.193.193,0,0,0,.152.15c.4.03,1.369.06,2.191.06a5.223,5.223,0,0,0,2.192-.331,2.837,2.837,0,0,0,1.43-2.675c0-2.615-1.826-3.608-4.535-3.608A8.121,8.121,0,0,0,534.685,66.469Z" transform="translate(-395.996 -48.685)" fill="#c1bfbe"/>
  <path id="Path_78404" data-name="Path 78404" d="M95.953,102.771a1.3,1.3,0,0,1-.093-.608.771.771,0,0,1,.093-.405,10.108,10.108,0,0,0,1.168-.238c.538-.133.741-.424.773-1.113.088-1.621.094-4.662.061-6.8v-.063a.85.85,0,0,0-.282-.764,6.1,6.1,0,0,0-1.615-.708c-.255-.076-.4-.209-.388-.366s.168-.342.5-.406a19.269,19.269,0,0,0,4.1-1.06.6.6,0,0,1,.122.432c-.007.095-.015.194-.024.3-.026.3-.055.645-.055.986a.224.224,0,0,0,.382.129,7.562,7.562,0,0,1,4.07-1.836,3.5,3.5,0,0,1,3.112,1.907.212.212,0,0,0,.177.1.2.2,0,0,0,.165-.088,8.165,8.165,0,0,1,4.217-1.923c2.492,0,3.98,1.863,3.98,4.983,0,.9-.009,2.033-.017,3.094-.008.931-.014,1.8-.014,2.407a.824.824,0,0,0,.491.633,6.367,6.367,0,0,0,1.555.382l.026,0a2.3,2.3,0,0,1-.157,1.017c-.165,0-.393-.013-.678-.028-.517-.027-1.226-.062-2.052-.062-1.656,0-2.521.033-3.347.086a2.5,2.5,0,0,1-.008-1.011,8.9,8.9,0,0,0,1.01-.237c.527-.174.679-.412.71-1.111.012-.5.108-4.873-.062-5.912a2.646,2.646,0,0,0-2.746-2.337A4.838,4.838,0,0,0,108.39,93.2a.405.405,0,0,0-.1.258l0,.02a11.174,11.174,0,0,1,.12,2.2c0,.564,0,1.162-.007,1.757-.007,1.206-.013,2.345.007,3.206a.808.808,0,0,0,.641.84c.155.034.278.064.4.093.239.058.487.117.853.176a1.623,1.623,0,0,1-.014.756.588.588,0,0,1-.106.258c-.921-.032-1.866-.059-3.229-.059-.413,0-1.088.018-1.683.034-.482.013-.939.025-1.2.027a1.19,1.19,0,0,1-.09-.524.915.915,0,0,1,.095-.49l.366-.066c.32-.057.6-.106.861-.171.451-.138.62-.388.653-.961a45.121,45.121,0,0,0-.033-6.157,2.53,2.53,0,0,0-2.623-2.334,4.933,4.933,0,0,0-2.738,1.042.83.83,0,0,0-.253.619c0,.459,0,1.005,0,1.591-.006,1.936-.013,4.345.034,5.388a.854.854,0,0,0,.746.842c.132.037.361.075.626.119.153.025.319.053.491.084a2.15,2.15,0,0,1-.082,1.018c-.265,0-.59-.017-.963-.033-.57-.025-1.28-.057-2.088-.057-.951,0-1.614.032-2.146.057-.357.017-.667.032-.975.034Z" transform="translate(-71.661 -67.595)" fill="#494849"/>
  <path id="Path_78405" data-name="Path 78405" d="M200.559,103.068c-4.573,0-6.2-3.351-6.2-6.486a5.794,5.794,0,0,1,2.666-5.09,8.129,8.129,0,0,1,4.115-1.216,5.754,5.754,0,0,1,5.928,6.1,6.3,6.3,0,0,1-2.817,5.57,7.959,7.959,0,0,1-3.689,1.126Zm-.487-11.514a2.6,2.6,0,0,0-1.456.408c-1.057.642-1.6,1.924-1.6,3.808,0,3.527,1.768,5.99,4.3,5.99a2.706,2.706,0,0,0,1.861-.656c.778-.634,1.19-1.929,1.19-3.741,0-3.475-1.728-5.809-4.3-5.809Z" transform="translate(-145.581 -67.621)" fill="#494849"/>
  <path id="Path_78406" data-name="Path 78406" d="M389.27,103.068c-4.574,0-6.2-3.351-6.2-6.486a5.8,5.8,0,0,1,2.667-5.09,8.127,8.127,0,0,1,4.115-1.216,5.754,5.754,0,0,1,5.928,6.1,6.3,6.3,0,0,1-2.817,5.57,7.956,7.956,0,0,1-3.69,1.127Zm-.487-11.514a2.6,2.6,0,0,0-1.457.408c-1.057.642-1.595,1.924-1.595,3.808,0,3.527,1.768,5.99,4.3,5.99a2.7,2.7,0,0,0,1.861-.656c.778-.634,1.19-1.928,1.19-3.74,0-3.475-1.728-5.809-4.3-5.809Z" transform="translate(-286.933 -67.621)" fill="#494849"/>
  <path id="Path_78407" data-name="Path 78407" d="M329.165,110.282a5.915,5.915,0,0,1-3.836-1.123,3.588,3.588,0,0,1-1.423-2.659,2.078,2.078,0,0,1,.539-1.352,14.26,14.26,0,0,1,2.48-1.984.126.126,0,0,0,.08-.12.125.125,0,0,0-.1-.125,2.6,2.6,0,0,1-1.757-1.7c0-.015-.007-.04-.013-.066a.4.4,0,0,1,.158-.491c.176-.126.46-.294.761-.471a10.05,10.05,0,0,0,1.224-.8.2.2,0,0,0-.051-.312,3.93,3.93,0,0,1-2.807-4.121,4.1,4.1,0,0,1,1.725-3.378,7.875,7.875,0,0,1,3.856-1.305h.071a7.935,7.935,0,0,1,2.944.655,4.7,4.7,0,0,0,1.74.277,2.36,2.36,0,0,0,1.883-.707,1.626,1.626,0,0,1,.1.538,2.026,2.026,0,0,1-.338,1.235,1.528,1.528,0,0,1-1.171.507,1.343,1.343,0,0,1-.137-.007,3.873,3.873,0,0,1-.706-.118l-.117.041c-.037.054-.013.114.017.19a.376.376,0,0,1,.017.047,8.367,8.367,0,0,1,.17,1.153,4.3,4.3,0,0,1-1.818,3.891,6.212,6.212,0,0,1-3.142,1.213h0c-.024,0-.137.01-.364.03-.146.013-.328.03-.355.03l-.027,0c-.206.058-.742.312-.742.786,0,.394.243.882,1.4.969l.749.053a22.955,22.955,0,0,1,4.334.543,3,3,0,0,1,2,2.884c0,1.985-1.413,3.852-3.78,4.993a8.223,8.223,0,0,1-3.574.8Zm-.182-6.975a2.325,2.325,0,0,0-1.145.283c-1.116.714-1.633,1.428-1.633,2.25a2.4,2.4,0,0,0,.948,1.938,4.8,4.8,0,0,0,3.23.986c2.733,0,3.959-1.468,3.959-2.923a2.072,2.072,0,0,0-1.556-2.075,12.207,12.207,0,0,0-3.8-.458Zm.182-11.874c-1.41,0-2.321,1.112-2.321,2.833,0,1.737.784,3.765,2.991,3.765a2.146,2.146,0,0,0,1.407-.543,3.508,3.508,0,0,0,.848-2.47c0-2.245-1.094-3.584-2.925-3.584Z" transform="translate(-242.619 -67.619)" fill="#494849"/>
  <g id="Group_105311" data-name="Group 105311" transform="translate(64.001 22.558)">
    <g id="Group_105310" data-name="Group 105310">
      <path id="Path_78408" data-name="Path 78408" d="M270.139,101.4a5.455,5.455,0,0,1-1.735-.451.8.8,0,0,1-.214-.421c-.061-.932-.061-3.638-.061-5.411a6.487,6.487,0,0,0-.852-3.608,3.667,3.667,0,0,0-3.1-1.623,7.22,7.22,0,0,0-4.079,1.924c-.03.03-.232.221-.227-.076s.05-.9.078-1.276a.655.655,0,0,0-.2-.557,18.714,18.714,0,0,1-4.14,1.082c-.648.124-.84.747-.122.962h0l.012,0a5.885,5.885,0,0,1,1.571.688.82.82,0,0,1,.243.752c.03,2.014.03,5.111-.061,6.794-.03.662-.213.9-.7,1.022l.045-.015a9.478,9.478,0,0,1-1.126.21,1.639,1.639,0,0,0,0,1.2c.3,0,1.857-.091,3.135-.091,1.766,0,2.679.091,3.135.091a1.679,1.679,0,0,0,.122-1.2,6.486,6.486,0,0,1-1.248-.18c-.487-.12-.609-.361-.639-.9-.061-1.413-.061-4.419-.061-6.463a1.183,1.183,0,0,1,.335-.992,4.011,4.011,0,0,1,2.5-.9,2.739,2.739,0,0,1,1.857.631,2.571,2.571,0,0,1,.853,1.684c.122,1.143.091,3.427.091,5.411,0,1.082-.091,1.353-.487,1.473a4.918,4.918,0,0,1-1.248.24,1.643,1.643,0,0,0,0,1.2c.792,0,1.7-.091,3.044-.091,1.674,0,2.74.091,3.166.091A1.661,1.661,0,0,0,270.139,101.4Z" transform="translate(-255.025 -89.888)" fill="#494849"/>
    </g>
  </g>
</svg>
