<svg xmlns="http://www.w3.org/2000/svg" width="125.016" height="64.858" viewBox="0 0 125.016 64.858">
  <g id="mysql" transform="translate(0 -0.144)">
    <path id="Path_78306" data-name="Path 78306" d="M0,123.444H4.2V107.1l6.453,14.2c.764,1.756,1.756,2.406,3.818,2.406s3.055-.649,3.818-2.406l6.453-14.2v16.343h4.2V107.1a2.479,2.479,0,0,0-2.024-2.787c-3.169-1.031-5.193-.115-6.224,2.024l-6.339,14.09-6.224-14.09c-.878-2.138-3.055-2.9-6.224-2.024A2.492,2.492,0,0,0,0,107.1v16.343Z" transform="translate(0 -64.131)" fill="#00678f"/>
    <path id="Path_78307" data-name="Path 78307" d="M84.4,120.015h4.2v9.012c0,.5.115,1.642,2.406,1.642h9.011V119.9h4.2v14.7c0,3.666-4.429,4.429-6.606,4.429H84.4v-2.787H97.459c2.673-.267,2.406-1.642,2.406-2.024v-1.146H91.12c-4.048,0-6.72-1.909-6.72-3.933v-9.126Z" transform="translate(-52.172 -74.028)" fill="#00678f"/>
    <path id="Path_78308" data-name="Path 78308" d="M248.353,35.562a15.687,15.687,0,0,0-6.224.878c-.5.267-1.26.267-1.26.764.267.267.267.649.5,1.031a6.138,6.138,0,0,0,1.642,1.909c.649.5,1.413,1.031,2.024,1.527,1.26.764,2.673,1.26,3.818,2.024.764.5,1.413,1.031,2.138,1.527.382.267.649.649,1.031.878v-.115c-.267-.267-.267-.764-.5-1.031a5.265,5.265,0,0,0-1.031-.878,12.96,12.96,0,0,0-3.284-3.169c-1.031-.764-3.284-1.642-3.666-2.787h-.115c.764-.115,1.527-.382,2.138-.5,1.146-.267,2.024-.267,3.169-.5a7.91,7.91,0,0,0,1.527-.5v-.267c-.649-.649-1.031-1.413-1.642-1.909a50.168,50.168,0,0,0-5.193-3.933c-1.031-.649-2.291-1.031-3.284-1.642-.382-.267-1.031-.267-1.26-.649a10.415,10.415,0,0,1-1.26-2.406c-.878-1.756-1.756-3.666-2.673-5.575a35.552,35.552,0,0,0-1.642-3.666c-3.284-5.46-6.835-8.63-12.3-11.914a11.717,11.717,0,0,0-4.048-1.26c-.764,0-1.642-.115-2.406-.115-.5-.267-1.031-.878-1.527-1.146-1.413-1.146-6.071-3.666-7.37-.382-.878,2.024,1.26,4.048,2.024,5.193a17.79,17.79,0,0,1,1.642,2.406,7.7,7.7,0,0,0,.382,1.642c.5,1.413,1.031,2.9,1.642,4.2.382.649.764,1.413,1.146,2.024.267.382.764.5.764,1.146a8.438,8.438,0,0,0-.764,2.406c-1.146,3.551-.764,7.981.878,10.653.5.764,1.756,2.52,3.284,1.909,1.413-.649,1.146-2.406,1.527-3.933.115-.382,0-.649.267-.878v.115a24.3,24.3,0,0,1,1.26,2.673,19.546,19.546,0,0,0,4.2,4.315,10.686,10.686,0,0,0,2.291,1.909v-.115h-.115c-.267-.267-.5-.382-.764-.649a10.44,10.44,0,0,1-1.642-1.909,33.584,33.584,0,0,1-3.551-5.842c-.5-1.031-1.031-2.024-1.413-3.055-.267-.382-.267-1.031-.5-1.146a14.434,14.434,0,0,0-1.527,2.138,16.852,16.852,0,0,0-.878,4.811c-.115,0-.115,0-.115.115-1.031-.267-1.413-1.26-1.756-2.138a12.949,12.949,0,0,1-.267-8.515c.267-.649,1.146-2.787.764-3.437-.267-.649-.878-1.031-1.146-1.413a22.278,22.278,0,0,1-1.146-2.024c-.764-1.756-1.146-3.818-2.024-5.575a11.187,11.187,0,0,0-1.642-2.406,16.522,16.522,0,0,1-1.756-2.52c-.115-.382-.382-.878-.115-1.26a.514.514,0,0,1,.5-.382c.382-.382,1.642.115,2.024.267a14.7,14.7,0,0,1,3.169,1.642,6.661,6.661,0,0,0,1.527,1.146h.649c1.031.267,2.138.115,3.169.382A28.04,28.04,0,0,1,222.235,7.8a27.336,27.336,0,0,1,9.89,10.921c.382.764.5,1.413.878,2.138.649,1.527,1.527,3.169,2.138,4.7a16.121,16.121,0,0,0,2.291,4.315c.5.649,2.406,1.031,3.284,1.413a10.882,10.882,0,0,1,2.138.878c1.146.649,2.138,1.413,3.169,2.138a2.5,2.5,0,0,1,2.329,1.26Z" transform="translate(-127.003 0)" fill="#00678f"/>
    <path id="Path_78309" data-name="Path 78309" d="M231.16,20.5c-.5,0-.878.115-1.26.115v.115h.115a12.174,12.174,0,0,0,1.031,1.26c.267.5.5,1.031.764,1.527V23.4c.382-.267.5-.764.5-1.527a1.453,1.453,0,0,0-.382-.649c-.153-.344-.535-.458-.764-.726Z" transform="translate(-142.114 -12.583)" fill="#00678f"/>
    <path id="Path_78310" data-name="Path 78310" d="M143.853,123.821h11.914a9.08,9.08,0,0,0,3.818-.764c1.757-.878,2.673-1.909,2.673-3.437v-3.055c0-1.146-1.031-2.291-2.9-3.055a10.489,10.489,0,0,0-3.551-.649h-5.079c-1.642,0-2.52-.5-2.673-1.642v-2.673c.267-.878.649-1.146,2.138-1.26h12.181V104.5H150.688a11.334,11.334,0,0,0-3.437.382c-2.406.764-3.551,2.024-3.551,4.048v2.406c0,1.909,2.138,3.437,5.689,3.818h6.071c1.26.115,1.909.382,2.291.878a1.051,1.051,0,0,1,.382.764V119.2a1.876,1.876,0,0,1-.649,1.031,3.53,3.53,0,0,1-1.756.649h-11.8v2.9h-.076Z" transform="translate(-88.829 -64.508)" fill="#e38d1a"/>
    <path id="Path_78311" data-name="Path 78311" d="M260.038,119.219c0,2.787,2.138,4.429,6.339,4.7.382,0,.764.115,1.26.115H278.4v-2.787H267.484c-2.406,0-3.284-.649-3.284-2.024V104.9H260v14.319Z" transform="translate(-160.721 -64.756)" fill="#e38d1a"/>
    <path id="Path_78312" data-name="Path 78312" d="M199.3,119.372v-9.89c0-2.52,1.756-4.048,5.193-4.582H214.65c3.437.5,5.193,2.024,5.193,4.582v9.89a3.592,3.592,0,0,1-2.406,3.818l4.048,3.666h-4.811L213.39,123.8l-3.284.267h-4.429a8.066,8.066,0,0,1-2.406-.382c-2.6-.649-3.971-2.062-3.971-4.315Zm4.544-.267c0,.115.115.267.115.382.267,1.146,1.26,1.756,2.9,1.756h3.818l-3.437-3.169h4.7l3.055,2.787a1.929,1.929,0,0,0,1.031-1.413V109.291c-.267-1.146-1.26-1.642-2.9-1.642H206.9c-1.909,0-3.055.764-3.055,2.024V119.1Z" transform="translate(-123.199 -64.756)" fill="#e38d1a"/>
    <path id="Path_78313" data-name="Path 78313" d="M311.778,150.587h.649V148.3h.764v-.5H310.9v.5h.878v2.291Zm4.544,0h.649V147.8h-.878l-.764,1.909-.764-1.909h-.878v2.787h.5v-2.138h0l.764,2.138h.382l.764-2.138h0v2.138Z" transform="translate(-192.185 -91.275)" fill="#e38d1a"/>
  </g>
</svg>
