<svg xmlns="http://www.w3.org/2000/svg" xmlns:xlink="http://www.w3.org/1999/xlink" width="54.091" height="33.122" viewBox="0 0 54.091 33.122">
  <defs>
    <linearGradient id="linear-gradient" x1="0.682" y1="0.175" x2="0.278" y2="0.898" gradientUnits="objectBoundingBox">
      <stop offset="0" stop-color="#41873f"/>
      <stop offset="0.329" stop-color="#418b3d"/>
      <stop offset="0.635" stop-color="#419637"/>
      <stop offset="0.932" stop-color="#3fa92d"/>
      <stop offset="1" stop-color="#3fae2a"/>
    </linearGradient>
    <linearGradient id="linear-gradient-2" x1="0.433" y1="0.552" x2="1.592" y2="-0.183" gradientUnits="objectBoundingBox">
      <stop offset="0.138" stop-color="#41873f"/>
      <stop offset="0.403" stop-color="#54a044"/>
      <stop offset="0.714" stop-color="#66b848"/>
      <stop offset="0.908" stop-color="#6cc04a"/>
    </linearGradient>
    <linearGradient id="linear-gradient-3" x1="-44.138" y1="0.134" x2="53.279" y2="0.134" gradientUnits="objectBoundingBox">
      <stop offset="0.092" stop-color="#6cc04a"/>
      <stop offset="0.286" stop-color="#66b848"/>
      <stop offset="0.597" stop-color="#54a044"/>
      <stop offset="0.862" stop-color="#41873f"/>
    </linearGradient>
    <linearGradient id="linear-gradient-4" x1="-0.044" y1="0.5" x2="1.015" y2="0.5" xlink:href="#linear-gradient-3"/>
    <linearGradient id="linear-gradient-5" x1="-97.138" y1="0.362" x2="0.279" y2="0.362" xlink:href="#linear-gradient-3"/>
    <linearGradient id="linear-gradient-6" x1="-1.039" y1="0.503" x2="1.008" y2="0.503" xlink:href="#linear-gradient-3"/>
    <linearGradient id="linear-gradient-7" x1="1.306" y1="-2.111" x2="0.044" y2="2.016" xlink:href="#linear-gradient"/>
  </defs>
  <g id="nodejs-seeklogo.com_2" data-name="nodejs-seeklogo.com 2" transform="translate(-0.231)">
    <path id="Path_78295" data-name="Path 78295" d="M203.193,200.6a1.072,1.072,0,0,1-.514-.135l-1.626-.966c-.245-.135-.122-.183-.049-.208a2.963,2.963,0,0,0,.734-.33.112.112,0,0,1,.122.012l1.247.746a.155.155,0,0,0,.147,0l4.878-2.824a.14.14,0,0,0,.073-.134v-5.636a.14.14,0,0,0-.073-.135l-4.878-2.812a.155.155,0,0,0-.147,0l-4.878,2.812a.153.153,0,0,0-.073.135v5.636a.153.153,0,0,0,.073.134l1.333.77c.721.367,1.174-.061,1.174-.489v-5.563a.149.149,0,0,1,.147-.147h.624a.149.149,0,0,1,.147.147v5.563a1.356,1.356,0,0,1-1.443,1.528,2.1,2.1,0,0,1-1.125-.306l-1.284-.734a1.032,1.032,0,0,1-.514-.893v-5.637a1.032,1.032,0,0,1,.514-.893l4.878-2.824a1.091,1.091,0,0,1,1.027,0l4.878,2.824a1.032,1.032,0,0,1,.514.893v5.637a1.032,1.032,0,0,1-.514.893l-4.878,2.824A1.251,1.251,0,0,1,203.193,200.6Zm1.5-3.876c-2.14,0-2.58-.978-2.58-1.81a.149.149,0,0,1,.147-.147h.636a.126.126,0,0,1,.134.122c.1.648.379.966,1.675.966,1.027,0,1.467-.232,1.467-.783,0-.318-.122-.55-1.724-.709-1.333-.134-2.164-.428-2.164-1.492,0-.99.831-1.577,2.225-1.577,1.565,0,2.335.538,2.433,1.712a.2.2,0,0,1-.037.11.151.151,0,0,1-.1.049h-.636a.143.143,0,0,1-.134-.11c-.147-.672-.526-.893-1.528-.893-1.125,0-1.259.391-1.259.685,0,.355.159.465,1.675.66s2.213.477,2.213,1.528C207.13,196.112,206.25,196.723,204.7,196.723Z" transform="translate(-176.21 -167.477)" fill="#539e43"/>
    <path id="Path_78296" data-name="Path 78296" d="M11.846,74.224a.622.622,0,0,0-.318-.538L6.344,70.7a.753.753,0,0,0-.281-.086H6.014a.582.582,0,0,0-.281.086L.549,73.686a.622.622,0,0,0-.318.538l.012,8.021a.3.3,0,0,0,.159.269.277.277,0,0,0,.306,0l3.081-1.761a.622.622,0,0,0,.318-.538V76.461a.622.622,0,0,1,.318-.538l1.308-.758a.592.592,0,0,1,.318-.086.525.525,0,0,1,.306.086l1.308.758a.622.622,0,0,1,.318.538v3.754a.622.622,0,0,0,.318.538l3.081,1.761a.3.3,0,0,0,.318,0,.3.3,0,0,0,.159-.269l-.012-8.021Z" transform="translate(0 -63.146)" fill="#333"/>
    <path id="Path_78297" data-name="Path 78297" d="M276.121.037a.336.336,0,0,0-.306,0,.319.319,0,0,0-.159.269V8.253a.22.22,0,0,1-.33.2l-1.3-.746a.63.63,0,0,0-.624,0l-5.184,3a.622.622,0,0,0-.318.538v5.979a.622.622,0,0,0,.318.538l5.184,3a.63.63,0,0,0,.624,0l5.184-3a.622.622,0,0,0,.318-.538V2.311a.627.627,0,0,0-.318-.55L276.121.037Zm-.477,15.21a.14.14,0,0,1-.073.134L273.8,16.408a.181.181,0,0,1-.159,0l-1.773-1.027a.153.153,0,0,1-.073-.134V13.193a.14.14,0,0,1,.073-.134l1.773-1.027a.181.181,0,0,1,.159,0l1.773,1.027a.153.153,0,0,1,.073.134v2.054Z" transform="translate(-239.356)" fill="#333"/>
    <g id="Group_105496" data-name="Group 105496" transform="translate(42.743 7.547)">
      <path id="Path_78298" data-name="Path 78298" d="M12.313,6.435a.611.611,0,0,0,.306-.538V4.442a.637.637,0,0,0-.306-.538L7.166.92a.63.63,0,0,0-.624,0l-5.184,3a.622.622,0,0,0-.318.538v5.979a.622.622,0,0,0,.318.538l5.147,2.934a.607.607,0,0,0,.611,0l3.118-1.736a.307.307,0,0,0,0-.538l-5.209-3a.319.319,0,0,1-.159-.269V6.5a.3.3,0,0,1,.159-.269L6.652,5.3a.3.3,0,0,1,.318,0L8.6,6.227a.319.319,0,0,1,.159.269V7.963a.3.3,0,0,0,.159.269.3.3,0,0,0,.318,0l3.081-1.8Z" transform="translate(-1.04 -0.838)" fill="#333"/>
      <path id="Path_78299" data-name="Path 78299" d="M46.357,50.929a.111.111,0,0,1,.122,0l.99.575a.128.128,0,0,1,.061.11v1.149a.128.128,0,0,1-.061.11l-.99.575a.111.111,0,0,1-.122,0l-.99-.575a.128.128,0,0,1-.061-.11V51.614a.128.128,0,0,1,.061-.11l.99-.575Z" transform="translate(-40.623 -45.614)" fill="#539e43"/>
    </g>
    <g id="Group_105500" data-name="Group 105500" transform="translate(14.39 6.566)">
      <path id="Path_78300" data-name="Path 78300" d="M6.539,1.152a.63.63,0,0,0-.624,0L.768,4.123a.611.611,0,0,0-.306.538v5.954a.637.637,0,0,0,.306.538l5.147,2.971a.63.63,0,0,0,.624,0l5.147-2.971a.611.611,0,0,0,.306-.538V4.661a.637.637,0,0,0-.306-.538L6.539,1.152Z" transform="translate(-0.413 -0.063)" fill="url(#linear-gradient)"/>
      <g id="Group_105497" data-name="Group 105497" transform="translate(0 1.004)">
        <path id="Path_78301" data-name="Path 78301" d="M5.49,1.135.33,4.106A.634.634,0,0,0,0,4.644V10.6a.589.589,0,0,0,.159.391l5.8-9.928a.7.7,0,0,0-.465.073Z" transform="translate(0 -1.051)" fill="none"/>
        <path id="Path_78302" data-name="Path 78302" d="M56.632,40.927a.747.747,0,0,0,.147-.061l5.16-2.971a.622.622,0,0,0,.318-.538V31.4a.623.623,0,0,0-.183-.428l-5.441,9.953Z" transform="translate(-50.641 -27.809)" fill="none"/>
        <path id="Path_78303" data-name="Path 78303" d="M12.629,4.3,7.457,1.332A.849.849,0,0,0,7.3,1.271L1.5,11.2a.643.643,0,0,0,.171.147l5.172,2.971a.6.6,0,0,0,.477.061l5.441-9.953a.641.641,0,0,0-.134-.122Z" transform="translate(-1.344 -1.248)" fill="url(#linear-gradient-2)"/>
      </g>
      <g id="Group_105499" data-name="Group 105499" transform="translate(0 0)">
        <g id="Group_105498" data-name="Group 105498">
          <path id="Path_78304" data-name="Path 78304" d="M61.636,19.939V13.984a.634.634,0,0,0-.33-.538l-5.172-2.971a.54.54,0,0,0-.2-.073L61.6,20.073a.246.246,0,0,0,.037-.134Z" transform="translate(-50.021 -9.387)" fill="none"/>
          <path id="Path_78305" data-name="Path 78305" d="M.33,39.077a.634.634,0,0,0-.33.538v5.954a.661.661,0,0,0,.33.538L5.5,49.078a.576.576,0,0,0,.4.073L.367,39.065l-.037.012Z" transform="translate(0 -35.018)" fill="none"/>
          <path id="Path_78306" data-name="Path 78306" d="M49.771.809,49.7.846h.1Z" transform="translate(-44.44 -0.809)" fill-rule="evenodd" fill="url(#linear-gradient-3)"/>
          <path id="Path_78307" data-name="Path 78307" d="M14.295,20.383a.7.7,0,0,0,.306-.391L8.927,10.308a.621.621,0,0,0-.44.073L3.352,13.34l5.539,10.1a.852.852,0,0,0,.232-.073l5.172-2.983Z" transform="translate(-2.997 -9.293)" fill-rule="evenodd" fill="url(#linear-gradient-4)"/>
          <path id="Path_78308" data-name="Path 78308" d="M110.989,104.195l-.037-.061v.086Z" transform="translate(-99.215 -93.203)" fill-rule="evenodd" fill="url(#linear-gradient-5)"/>
          <path id="Path_78309" data-name="Path 78309" d="M61.215,102.226l-5.16,2.971a.738.738,0,0,1-.232.073l.1.183,5.722-3.313v-.073l-.147-.245a.568.568,0,0,1-.281.4Z" transform="translate(-49.918 -91.136)" fill-rule="evenodd" fill="url(#linear-gradient-6)"/>
          <path id="Path_78310" data-name="Path 78310" d="M61.215,102.226l-5.16,2.971a.738.738,0,0,1-.232.073l.1.183,5.722-3.313v-.073l-.147-.245a.568.568,0,0,1-.281.4Z" transform="translate(-49.918 -91.136)" fill-rule="evenodd" fill="url(#linear-gradient-7)"/>
        </g>
      </g>
    </g>
  </g>
</svg>
