<svg xmlns="http://www.w3.org/2000/svg" width="63.264" height="51.686" viewBox="0 0 63.264 51.686">
  <g id="Layer_2" data-name="Layer 2" transform="translate(0 0.01)">
    <g id="Layer_1" data-name="Layer 1" transform="translate(0 2.001)">
      <path id="Path_14311" data-name="Path 14311" d="M3.957,52.664H.886V48.939H4.139q1.779,0,1.779,1.9T3.957,52.664m2.2-3.808A2.285,2.285,0,0,0,4.4,48.169L0,48.236v8.9H.886V53.36H4.139a2.666,2.666,0,0,0,1.937-.687,2.484,2.484,0,0,0,.7-1.9,2.691,2.691,0,0,0-.621-1.921ZM11.9,55.247a1.887,1.887,0,0,1-.422.761,2.236,2.236,0,0,1-1.813.712,2.111,2.111,0,0,1-1.656-.679,2.7,2.7,0,0,1-.641-1.8,3.311,3.311,0,0,1,.157-1.059,2.119,2.119,0,0,1,.447-.778,2.152,2.152,0,0,1,1.656-.671q2.384,0,2.384,2.484a3.766,3.766,0,0,1-.132,1.052m.157-3.311a3.063,3.063,0,0,0-2.4-.894,2.959,2.959,0,0,0-2.318.911,3.212,3.212,0,0,0-.7,2.276,3.245,3.245,0,0,0,.761,2.236,2.483,2.483,0,0,0,.986.671,3.8,3.8,0,0,0,1.324.207,3.129,3.129,0,0,0,2.4-.877,3.734,3.734,0,0,0,0-4.471ZM18.715,55.5q0,1.8-2.674,1.8a6.383,6.383,0,0,1-1.374-.124,2.127,2.127,0,0,1-.911-.414,1.531,1.531,0,0,1-.431-.571,2.806,2.806,0,0,1-.207-.894h.828a1.241,1.241,0,0,0,.431,1.043,2.574,2.574,0,0,0,1.656.406q1.871,0,1.871-1.134a.911.911,0,0,0-.629-.911q-.124-.05-1.506-.249a8.1,8.1,0,0,1-1.7-.339,1.291,1.291,0,0,1-.736-1.275A1.5,1.5,0,0,1,14,51.506a2.856,2.856,0,0,1,.828-.281,5.629,5.629,0,0,1,1.134-.1q2.574,0,2.574,1.946h-.826c0-.911-.6-1.374-1.813-1.374a2.691,2.691,0,0,0-1.374.281.927.927,0,0,0-.455.828.828.828,0,0,0,.613.778,10.49,10.49,0,0,0,1.656.281,4.917,4.917,0,0,1,1.589.348,1.333,1.333,0,0,1,.828,1.3Zm3.254,1.656-.339.058h-.207a1.9,1.9,0,0,1-1.167-.281,1.192,1.192,0,0,1-.356-.994V51.9h-.942V51.34h.977V49.386H20.7V51.34H22.02v.6H20.7V55.9a.77.77,0,0,0,.2.6,1.1,1.1,0,0,0,.7.166.505.505,0,0,0,.157,0l.263-.074v.6Zm5.224-1.349a2.17,2.17,0,0,1-.7.5,2.367,2.367,0,0,1-.9.149A2.094,2.094,0,0,1,23.2,54.09a2.367,2.367,0,0,1,.6-1.722,2.269,2.269,0,0,1,1.706-.622,2.152,2.152,0,0,1,1.656.637,2.392,2.392,0,0,1,.571,1.656,2.484,2.484,0,0,1-.588,1.771m1.416-4.471h-.754v1.01a5.524,5.524,0,0,0-.712-.778,2.914,2.914,0,0,0-1.655-.423,2.707,2.707,0,0,0-2.989,2.98,3.842,3.842,0,0,0,.191,1.241,2.564,2.564,0,0,0,.53.894,2.955,2.955,0,0,0,2.2.789,2.641,2.641,0,0,0,2.426-1.126v1.043a2.152,2.152,0,0,1-.489,1.54,2.276,2.276,0,0,1-1.705.546,2.63,2.63,0,0,1-1.606-.381,1.656,1.656,0,0,1-.489-.994h-.779a2.078,2.078,0,0,0,.687,1.422,3.634,3.634,0,0,0,2.194.5q2.964,0,2.964-2.657V51.34Zm4.089.588a3.312,3.312,0,0,0-.637-.066q-1.854,0-1.854,2.484v2.79h-.744V51.34h.754v1.043h0a1.821,1.821,0,0,1,.6-.936,2.4,2.4,0,0,1,1.349-.323h.505V51.9Zm.7,1.9a2.839,2.839,0,0,1,.646-1.548,2.161,2.161,0,0,1,.761-.439,2.564,2.564,0,0,1,.927-.157,2.177,2.177,0,0,1,1.656.671,2.111,2.111,0,0,1,.6,1.474H33.37m4.661-1.8a2.384,2.384,0,0,0-.977-.679,3.734,3.734,0,0,0-1.374-.232,2.831,2.831,0,0,0-3.09,3.063,3.187,3.187,0,0,0,.778,2.236,3.055,3.055,0,0,0,2.384.921,3.682,3.682,0,0,0,1.126-.166,2.872,2.872,0,0,0,.911-.472,2.591,2.591,0,0,0,.828-1.457h-.825a1.962,1.962,0,0,1-2.1,1.531,2.269,2.269,0,0,1-1.821-.736,2.4,2.4,0,0,1-.546-1.656h5.392a3.46,3.46,0,0,0-.723-2.334Z" transform="translate(0 -9.948)" fill="#231f20"/>
      <path id="Path_14312" data-name="Path 14312" d="M54.928,54.734q0,2.608-3.485,2.608a4.363,4.363,0,0,1-3.046-.894,2.914,2.914,0,0,1-.828-2.236H48.5q0,2.433,2.9,2.433a3.229,3.229,0,0,0,2.011-.5,1.7,1.7,0,0,0,.53-1.374,1.341,1.341,0,0,0-.712-1.3,10.083,10.083,0,0,0-1.937-.514,8.825,8.825,0,0,1-2.564-.729,1.987,1.987,0,0,1-.828-1.821,2.152,2.152,0,0,1,.723-1.78,4.264,4.264,0,0,1,2.611-.638q3.411,0,3.411,2.74h-.927q0-2.053-2.533-2.053a3.236,3.236,0,0,0-1.854.414,1.548,1.548,0,0,0-.555,1.275,1.291,1.291,0,0,0,.712,1.259,11.2,11.2,0,0,0,2.236.588,6.805,6.805,0,0,1,2.351.736,1.946,1.946,0,0,1,.828,1.788Zm7.591.886a3.485,3.485,0,0,1-1.19.753,4.081,4.081,0,0,1-1.474.249,3.535,3.535,0,0,1-2.7-1.084,4.652,4.652,0,0,1,0-5.795,3.6,3.6,0,0,1,2.707-1.052,3.411,3.411,0,0,1,2.682,1.1,3.361,3.361,0,0,1,.761,1.249A5.016,5.016,0,0,1,63.56,52.7a4.143,4.143,0,0,1-1.035,2.964m.5.588a3.767,3.767,0,0,0,1.07-1.505,5.538,5.538,0,0,0,.348-2.045A4.769,4.769,0,0,0,63.3,49.386a3.759,3.759,0,0,0-1.474-1.026,5.439,5.439,0,0,0-1.979-.367,4.479,4.479,0,0,0-3.386,1.275,5.346,5.346,0,0,0,.024,6.821,4.511,4.511,0,0,0,3.394,1.275,6.9,6.9,0,0,0,1.465-.141A3.187,3.187,0,0,0,62.4,56.8l1.381,1.126.579-.637L63.03,56.2Zm8.417.855H65.061V48.177h.878V56.4h5.514v.7Z" transform="translate(-8.189 -9.916)" fill="#326690"/>
      <path id="Path_14313" data-name="Path 14313" d="M37.649,27.466c.281-1.962.2-2.251,1.921-1.929h.439a11.589,11.589,0,0,0,4.085-.581c2.194-.828,3.494-2.3,1.333-1.929-4.97.828-5.278-.554-5.278-.554,5.207-6.556,7.384-14.9,5.505-16.9-5.139-5.53-14-2.9-14.162-2.831h-.05a20.638,20.638,0,0,0-3.311-.29,9.181,9.181,0,0,0-5.215,1.324S7.078-1.757,7.815,10.727c.149,2.657,4.5,20.093,9.661,14.826,1.912-1.921,3.734-3.526,3.734-3.526a5.464,5.464,0,0,0,3.129.679l.091-.066a2.433,2.433,0,0,0,0,.754c-1.3,1.234-.911,1.457-3.543,1.946s-1.109,1.308-.074,1.531c1.249.263,4.139.646,6.109-1.656l-.074.263c.521.356.489,2.55.563,4.139a12.724,12.724,0,0,0,.573,3.892c.373.828.828,3.079,4.321,2.484,2.922-.53,5.157-1.291,5.364-8.4" transform="translate(-1.341 -2.01)" fill="#231f20" stroke="#231f20" stroke-width="4.11"/>
      <path id="Path_14314" data-name="Path 14314" d="M45.415,23.054c-4.967.828-5.274-.555-5.274-.555,5.207-6.556,7.384-14.9,5.505-16.9C40.522.04,31.657,2.672,31.491,2.738h-.05a20.638,20.638,0,0,0-3.311-.29,9.181,9.181,0,0,0-5.215,1.324S7.078-1.757,7.815,10.727c.149,2.657,4.486,20.093,9.661,14.826,1.912-1.921,3.734-3.526,3.734-3.526a5.464,5.464,0,0,0,3.129.679l.091-.066a2.484,2.484,0,0,0,0,.754c-1.3,1.234-.911,1.457-3.543,1.946s-1.109,1.308-.074,1.531c1.249.263,4.139.646,6.109-1.656l-.074.263c.521.356.886,2.3.828,4.073a9.747,9.747,0,0,0,.306,3.932c.406.952.828,3.079,4.321,2.484,2.922-.53,4.437-1.907,4.652-4.208.149-1.656.489-1.391.514-2.848l.273-.687c.314-2.21.05-2.922,1.854-2.591h.439a11.589,11.589,0,0,0,4.081-.579c2.194-.828,3.494-2.3,1.333-1.929Z" transform="translate(-1.341 -2.01)" fill="#326690"/>
      <path id="Path_14315" data-name="Path 14315" d="M27.12,24.352c-.132,4.139,0,8.279.514,9.271s1.49,2.964,4.967,2.334c2.922-.53,3.99-1.556,4.446-3.833.329-1.656.994-6.308,1.076-7.26M22.92,3.656S7.07-1.814,7.815,10.676c.166,2.657,4.487,20.091,9.661,14.818,1.887-1.929,3.593-3.477,3.593-3.477M31.491,2.671c-.548.157,8.816-2.9,14.131,2.864,1.879,2.038-.3,10.356-5.505,16.9" transform="translate(-1.341 -2.001)" fill="none" stroke="#fff" stroke-linecap="round" stroke-linejoin="round" stroke-width="1.37"/>
      <path id="Path_14316" data-name="Path 14316" d="M42.415,22.523s.329,1.416,5.274.555c2.161-.381.828,1.059-1.333,1.929-1.8.7-5.8.886-5.9-.091-.174-2.484,2.119-1.755,1.962-2.392S41.24,21.4,40.562,20.04s-8.121-10.589,2.086-9.2c.373-.066-2.666-8.229-12.219-8.361s-9.239,9.932-9.239,9.932" transform="translate(-3.648 -2.084)" fill="none" stroke="#fff" stroke-linecap="round" stroke-linejoin="bevel" stroke-width="1.37"/>
      <path id="Path_14317" data-name="Path 14317" d="M26.858,27.648c-1.333,1.259-.944,1.482-3.6,1.946s-1.109,1.308-.074,1.531c1.249.263,4.139.646,6.109-1.656.6-.7,0-1.838-.828-2.128a1.358,1.358,0,0,0-1.606.329Z" transform="translate(-3.751 -6.34)" fill="none" stroke="#fff" stroke-linejoin="round" stroke-width="1.37"/>
      <path id="Path_14318" data-name="Path 14318" d="M26.629,25.111a5.224,5.224,0,0,1,.736-2.657c.679-1.548,2.246-3.1,1-8.014-.936-3.659-7.2-.761-7.2-.263a21.06,21.06,0,0,1-.108,4.866c-.508,3.071,2.3,5.662,5.535,5.4" transform="translate(-3.615 -3.828)" fill="none" stroke="#fff" stroke-linecap="round" stroke-linejoin="round" stroke-width="1.37"/>
      <path id="Path_14319" data-name="Path 14319" d="M26,14.364a1.059,1.059,0,0,0,.877.679.977.977,0,0,0,.986-.464c0-.166-.364-.356-.877-.414S26,14.174,26,14.364Z" transform="translate(-4.476 -4.091)" fill="#fff" stroke="#fff" stroke-width="0.46"/>
      <path id="Path_14320" data-name="Path 14320" d="M44.5,13.956a1.059,1.059,0,0,1-.878.678.977.977,0,0,1-1-.46c0-.174.364-.356.878-.414s.952,0,.986.2Z" transform="translate(-7.338 -4.022)" fill="#fff" stroke="#fff" stroke-width="0.23"/>
      <path id="Path_14321" data-name="Path 14321" d="M46.883,12.58a36.432,36.432,0,0,1-.389,3.651c-.083,2.061,1.159,4.412-.7,6.773" transform="translate(-7.883 -3.822)" fill="none" stroke="#fff" stroke-linecap="round" stroke-linejoin="round" stroke-width="1.37"/>
    </g>
  </g>
</svg>
