<svg id="python_1" xmlns="http://www.w3.org/2000/svg" xmlns:xlink="http://www.w3.org/1999/xlink" width="157.466" height="38.293" viewBox="0 0 157.466 38.293">
  <defs>
    <linearGradient id="linear-gradient" x1="-0.034" y1="1.286" x2="0.712" y2="0.644" gradientUnits="objectBoundingBox">
      <stop offset="0" stop-color="#5a9fd4"/>
      <stop offset="1" stop-color="#306998"/>
    </linearGradient>
    <linearGradient id="linear-gradient-2" x1="0.651" y1="-0.09" x2="0.385" y2="0.284" gradientUnits="objectBoundingBox">
      <stop offset="0" stop-color="#ffd43b"/>
      <stop offset="1" stop-color="#ffe873"/>
    </linearGradient>
  </defs>
  <path id="Path_74457" data-name="Path 74457" d="M222.268,19.45q0-7.235-4.124-7.437a7.773,7.773,0,0,0-3.2.518,4.726,4.726,0,0,0-1.69.879V24.927a8.121,8.121,0,0,0,4.688,1.533c2.885-.158,4.327-2.5,4.327-7.009Zm3.4.2a10.3,10.3,0,0,1-1.735,6.108,6.388,6.388,0,0,1-5.364,2.817,9.464,9.464,0,0,1-5.319-1.623v10.48L210.3,36.376V13.14a6.69,6.69,0,0,1,1.871-1.533,12.874,12.874,0,0,1,6.4-1.578l.045.045a5.928,5.928,0,0,1,5.319,2.817,12.139,12.139,0,0,1,1.735,6.761Zm18.053,6.874c0,3.291-.338,5.567-.992,6.829a7,7,0,0,1-3.786,3.043,14.419,14.419,0,0,1-4.891.969l-.5-1.871a26.506,26.506,0,0,0,3.764-.721,5,5,0,0,0,2.952-2.231,11.216,11.216,0,0,0,.654-4.643v-.766a15.427,15.427,0,0,1-6.356,1.375,5.9,5.9,0,0,1-3.854-1.375,4.7,4.7,0,0,1-1.871-3.809V11.044l2.952-1.014V22.4a3.775,3.775,0,0,0,1.285,3.065A4.83,4.83,0,0,0,236.4,26.5a8.306,8.306,0,0,0,4.35-1.578V10.5H243.7l.023,16.024Zm11.539,1.916-.969.045a5.843,5.843,0,0,1-3.9-1.195A4.159,4.159,0,0,1,249,23.98V12.351h-2.028V10.5H249V5.544l2.952-1.059v6h3.313v1.848H251.95V23.89a2.738,2.738,0,0,0,.9,2.344,4.629,4.629,0,0,0,2.434.654v1.555Zm17.9-.248h-2.952v-11.4a5.37,5.37,0,0,0-.811-3,2.951,2.951,0,0,0-2.592-1.42c-1.352,0-3.043.721-5.071,2.141V28.172h-2.952V.924L261.709,0V12.418a10.3,10.3,0,0,1,6.2-2.073,4.933,4.933,0,0,1,3.809,1.578,5.6,5.6,0,0,1,1.465,3.922l-.023,12.351ZM288.867,19a9.129,9.129,0,0,0-1.059-4.6,4.427,4.427,0,0,0-3.876-2.344c-3.245.18-4.846,2.5-4.846,6.942a11.494,11.494,0,0,0,1.014,5.116,4.086,4.086,0,0,0,3.9,2.569c3.223-.023,4.868-2.592,4.868-7.685Zm3.223.023a10.526,10.526,0,0,1-2.028,6.6,7.3,7.3,0,0,1-6.153,2.952,7.112,7.112,0,0,1-6.063-2.952,10.6,10.6,0,0,1-1.983-6.6A9.432,9.432,0,0,1,278,12.756a7.384,7.384,0,0,1,5.95-2.7,7.5,7.5,0,0,1,6,2.7,9.39,9.39,0,0,1,2.141,6.266Zm16.948,9.173h-2.952V16.137a4.023,4.023,0,0,0-1.195-3.088,4.227,4.227,0,0,0-3.178-1.059,7.107,7.107,0,0,0-3.989,1.375V28.217h-2.975V12.982a14.638,14.638,0,0,1,4.688-2.434A13.975,13.975,0,0,1,303,10.029a9.393,9.393,0,0,1,1.983.2,5.832,5.832,0,0,1,2.84,1.487,3.968,3.968,0,0,1,1.217,2.907V28.195Z" transform="translate(-162.908)" fill="#646464"/>
  <path id="Path_74458" data-name="Path 74458" d="M18.23,4.6a25.021,25.021,0,0,0-4.26.361c-3.764.654-4.44,2.051-4.44,4.62v3.381h8.9v1.127H6.194A5.53,5.53,0,0,0,.65,18.6a16.635,16.635,0,0,0,0,9.038c.631,2.637,2.141,4.508,4.733,4.508H8.448V28.084a5.655,5.655,0,0,1,5.544-5.522h8.88a4.463,4.463,0,0,0,4.44-4.508V9.581c0-2.412-2.028-4.215-4.44-4.62A29.087,29.087,0,0,0,18.23,4.6Zm-4.8,2.727a1.69,1.69,0,1,1-1.668,1.69A1.683,1.683,0,0,1,13.429,7.327Z" transform="translate(-0.024 -3.563)" fill="url(#linear-gradient)"/>
  <path id="Path_74459" data-name="Path 74459" d="M61.164,46.8v3.944a5.693,5.693,0,0,1-5.544,5.634H46.74a4.522,4.522,0,0,0-4.44,4.508V69.36c0,2.412,2.1,3.831,4.44,4.508a14.887,14.887,0,0,0,8.88,0c2.231-.654,4.44-1.961,4.44-4.508V65.98H51.18V64.853H64.5c2.592,0,3.538-1.8,4.44-4.508.924-2.795.879-5.454,0-9.038-.631-2.569-1.848-4.508-4.44-4.508ZM56.183,68.233a1.69,1.69,0,1,1-1.668,1.69A1.683,1.683,0,0,1,56.183,68.233Z" transform="translate(-32.772 -36.252)" fill="url(#linear-gradient-2)"/>
  <path id="Path_74460" data-name="Path 74460" d="M669.64,22.329h.518V19.083h1.217V18.7H668.4v.383h1.217l.022,3.245m2.209,0h.451V19.354l.969,2.975h.5l.992-2.952v2.952h.473V18.7H674.6l-1.1,3.11-.924-3.11h-.721v3.629" transform="translate(-517.763 -14.485)" fill="#646464"/>
</svg>
