<svg id="rails-seeklogo.com" xmlns="http://www.w3.org/2000/svg" width="49.947" height="17.552" viewBox="0 0 49.947 17.552">
  <path id="Path_78317" data-name="Path 78317" d="M170.358,93.847s2.205-.189,2.205-3.037a3.01,3.01,0,0,0-2.671-3.112h-4.813v8.984H167.5V94.514l2.092,2.167h3.578Zm-.932-1.84H167.5V89.953h1.94a1.012,1.012,0,0,1,.542,1.021A1.04,1.04,0,0,1,169.425,92.007Zm9.11-4.246h-2.457a2.36,2.36,0,0,0-2.344,2.344v6.577h2.457V95.107H178.5v1.575h2.381V90.1A2.325,2.325,0,0,0,178.535,87.761Zm-.038,4.8h-2.318v-2.18s0-.491.769-.491h.844c.68,0,.693.491.693.491v2.18Zm3.5-4.8h2.558v8.921H182Zm6.149,6.615V87.761H185.6v8.921h5.985V94.376Zm4.284.025v2.281h4.12a2.356,2.356,0,0,0,2.344-2.344v-.882a2.327,2.327,0,0,0-2.344-2.344H194.5V90.054h4.07V87.761h-3.906a2.4,2.4,0,0,0-2.356,2.381v.794a2.355,2.355,0,0,0,2.356,2.344c2.835.013-.68,0,1.94,0v1.109Z" transform="translate(-148.95 -79.13)" fill="#c00"/>
  <path id="Path_78318" data-name="Path 78318" d="M.882,17.539h9.954s-1.9-8.682,4.4-12.2c1.373-.668,5.746-3.163,12.9,2.129.227-.189.441-.34.441-.34S22.025.592,14.73,1.323C11.063,1.651,6.552,4.99,3.906,9.4A21.8,21.8,0,0,0,.882,17.539ZM21.622,2.029l.05-.844A6.162,6.162,0,0,0,20.45.743l-.05.832C20.815,1.714,21.219,1.865,21.622,2.029ZM20.425,4.7l-.05.794a7.026,7.026,0,0,1,1.247.151l.05-.781A8.923,8.923,0,0,0,20.425,4.7ZM15.763.769h.126L15.637,0a10.054,10.054,0,0,0-1.21.076l.239.743A10.637,10.637,0,0,1,15.763.769Zm.6,4.637.29.869a7.972,7.972,0,0,1,1.1-.441L17.476,5A9.142,9.142,0,0,0,16.368,5.405Zm-5.72-3.314-.567-.869c-.315.164-.643.34-.983.542l.58.882C10,2.444,10.32,2.255,10.647,2.092Zm2.583,5.67.6.907a7,7,0,0,1,.743-.895l-.567-.857A6.971,6.971,0,0,0,13.23,7.762ZM11.4,11.819l1.021.806a10.063,10.063,0,0,1,.265-1.474l-.907-.718A11.98,11.98,0,0,0,11.4,11.819ZM5.884,5.834,4.99,5.053c-.328.315-.643.63-.932.945l.97.832A12.761,12.761,0,0,1,5.884,5.834ZM2.079,11.466.63,10.937c-.239.542-.5,1.172-.63,1.512l1.449.529C1.613,12.55,1.877,11.932,2.079,11.466Zm9.135,3.553a12.8,12.8,0,0,0,.151,1.588l1.512.542a16.654,16.654,0,0,1-.3-1.638Z" fill="#c00"/>
</svg>
