<svg xmlns="http://www.w3.org/2000/svg" width="60.352" height="53.752" viewBox="0 0 60.352 53.752">
  <g id="Group_105342" data-name="Group 105342" transform="translate(-452.637 -6334.095)">
    <circle id="Ellipse_505" data-name="Ellipse 505" cx="5.347" cy="5.347" r="5.347" transform="translate(477.467 6355.577)" fill="#00d8ff"/>
    <path id="Path_74391" data-name="Path 74391" d="M30.176,70.545c-7.522,0-14.114-.892-19.059-2.574C4.259,65.623,0,61.819,0,58.037c0-3.639,3.943-7.19,10.551-9.5a61.791,61.791,0,0,1,19.625-2.9,61.531,61.531,0,0,1,19.36,2.846c6.773,2.34,10.816,5.913,10.816,9.561,0,3.794-4.408,7.588-11.506,9.947A62,62,0,0,1,30.176,70.545Zm0-21.832a59.529,59.529,0,0,0-18.613,2.725c-5.83,2.039-8.489,4.853-8.489,6.6,0,1.954,3.1,4.992,9.036,7.022,4.629,1.581,10.877,2.409,18.066,2.409a58.641,58.641,0,0,0,17.706-2.4c6.456-2.134,9.394-5.138,9.394-7.029,0-1.752-2.735-4.578-8.742-6.64A58.175,58.175,0,0,0,30.176,48.713Z" transform="translate(452.637 6302.886)" fill="#00d8ff"/>
    <path id="Path_74392" data-name="Path 74392" d="M43.04,53.75a5.919,5.919,0,0,1-3-.74C36.881,51.192,35.774,46,37.083,39.12a62.071,62.071,0,0,1,7.291-18.449h0A61.7,61.7,0,0,1,56.519,5.317C61.926.6,67.041-1.107,70.2.711c3.276,1.9,4.376,7.617,2.877,14.933A61.668,61.668,0,0,1,65.96,33.1C62.191,39.623,58.125,44.9,54.2,48.327,50.183,51.853,46.174,53.75,43.04,53.75Zm4-31.552A59.721,59.721,0,0,0,40.1,39.683c-1.154,6.067-.044,9.776,1.473,10.649,1.695.98,5.881-.2,10.6-4.322,3.674-3.219,7.519-8.221,11.12-14.446a58.373,58.373,0,0,0,6.769-16.543c1.363-6.64.228-10.706-1.4-11.651-1.514-.873-5.331.085-10.118,4.253a58.732,58.732,0,0,0-11.5,14.573Z" transform="translate(427.648 6334.096)" fill="#00d8ff"/>
    <path id="Path_74393" data-name="Path 74393" d="M67.331,53.889c-2.969,0-6.706-1.771-10.576-5.1A61.887,61.887,0,0,1,44.423,33.268h0a61.64,61.64,0,0,1-7.237-18.19C35.814,8.046,36.87,2.747,40.032.926c3.285-1.9,8.79,0,14.37,4.964A61.494,61.494,0,0,1,65.971,20.776c3.794,6.539,6.324,12.691,7.313,17.791,1.407,7.111.247,12.7-3.032,14.589A5.792,5.792,0,0,1,67.331,53.889ZM47.1,31.725A59.51,59.51,0,0,0,58.772,46.456c4.673,4.028,8.448,4.92,9.966,4.038,1.692-.974,2.767-5.179,1.549-11.329-.949-4.771-3.342-10.6-6.956-16.846A58.658,58.658,0,0,0,52.382,8.192c-4.86-4.316-9.106-5.577-10.8-4.6-1.518.879-2.6,4.667-1.382,10.9a58.992,58.992,0,0,0,6.883,17.235Z" transform="translate(427.611 6333.957)" fill="#00d8ff"/>
  </g>
</svg>
