<svg id="swift-seeklogo.com_2" data-name="swift-seeklogo.com 2" xmlns="http://www.w3.org/2000/svg" xmlns:xlink="http://www.w3.org/1999/xlink" width="40.297" height="40.281" viewBox="0 0 40.297 40.281">
  <defs>
    <linearGradient id="linear-gradient" x1="-7.219" y1="4.905" x2="-7.029" y2="3.833" gradientUnits="objectBoundingBox">
      <stop offset="0" stop-color="#faae42"/>
      <stop offset="1" stop-color="#ef3e31"/>
    </linearGradient>
    <linearGradient id="linear-gradient-2" x1="0.598" y1="0.02" x2="0.436" y2="0.978" gradientUnits="objectBoundingBox">
      <stop offset="0" stop-color="#e39f3a"/>
      <stop offset="1" stop-color="#d33929"/>
    </linearGradient>
  </defs>
  <path id="Path_78037" data-name="Path 78037" d="M9.278,0H31.59a9.406,9.406,0,0,1,3.163.535,8.935,8.935,0,0,1,5.759,7.018,10.852,10.852,0,0,1,.11,1.747V31.061a10.193,10.193,0,0,1-.173,2.077,8.951,8.951,0,0,1-6.058,6.735,9.459,9.459,0,0,1-2.817.409c-.425,0-22.359,0-22.69-.016a8.979,8.979,0,0,1-4.532-1.495,9.094,9.094,0,0,1-3.068-3.525,8.879,8.879,0,0,1-.9-3.918V8.953A8.353,8.353,0,0,1,1.221,5.1a8.934,8.934,0,0,1,3.037-3.54A8.814,8.814,0,0,1,8.774.031,2.624,2.624,0,0,1,9.278,0Z" transform="translate(-0.324)" fill="url(#linear-gradient)"/>
  <path id="Path_78038" data-name="Path 78038" d="M33.987,32.949a6.147,6.147,0,0,0-.472-.645,6.683,6.683,0,0,0-1.353-1.227,4.143,4.143,0,0,0-2.124-.724,3.846,3.846,0,0,0-1.573.252A10.255,10.255,0,0,0,27,31.281c-.551.283-1.1.566-1.684.8a12.654,12.654,0,0,1-2.156.661,14.012,14.012,0,0,1-2.8.22,18.929,18.929,0,0,1-4.972-.755,18.809,18.809,0,0,1-4.044-1.747,20.851,20.851,0,0,1-3.131-2.219,22.882,22.882,0,0,1-2.234-2.219c-.472-.551-.928-1.133-1.353-1.731a7.339,7.339,0,0,1-.472-.74h0L0,19.071V8.922A8.911,8.911,0,0,1,8.906,0h7.946l5.885,5.979h0c13.28,9.032,8.985,18.992,8.985,18.992S35.5,29.22,33.987,32.949Z" fill="url(#linear-gradient-2)"/>
  <path id="Path_78039" data-name="Path 78039" d="M45.014,38C58.295,47.032,54,56.992,54,56.992s3.776,4.264,2.25,7.993c0,0-1.558-2.612-4.17-2.612-2.518,0-4,2.612-9.063,2.612C31.734,64.985,26.4,55.56,26.4,55.56c10.165,6.687,17.1,1.951,17.1,1.951-4.579-2.659-14.319-15.373-14.319-15.373,8.481,7.222,12.147,9.126,12.147,9.126-2.187-1.81-8.324-10.653-8.324-10.653,4.909,4.972,14.665,11.911,14.665,11.911C50.443,44.845,45.014,38,45.014,38Z" transform="translate(-22.246 -32.021)" fill="#fff"/>
</svg>
