<svg id="typescript-seeklogo.com" xmlns="http://www.w3.org/2000/svg" width="74" height="74" viewBox="0 0 74 74">
  <path id="Path_78244" data-name="Path 78244" d="M0-219v37H74v-74H0Z" transform="translate(0 256)" fill="#007acc"/>
  <path id="Path_78245" data-name="Path 78245" d="M26.053,30.4l.023-3.03H16.444V0H9.632V27.368H0V30.34a29.12,29.12,0,0,0,.082,3.054c.035.047,5.9.07,13,.059l12.932-.035Z" transform="translate(42.417 67.644) rotate(180)" fill="#fff"/>
  <path id="Path_78246" data-name="Path 78246" d="M168.655-235.021a9.211,9.211,0,0,1,4.628,2.666,12.186,12.186,0,0,1,1.774,2.373c.023.094-3.195,2.255-5.145,3.465-.07.047-.352-.258-.67-.728a4.194,4.194,0,0,0-3.477-2.091c-2.243-.153-3.688,1.022-3.676,2.983a2.714,2.714,0,0,0,.317,1.386c.493,1.022,1.41,1.633,4.287,2.878,5.3,2.279,7.564,3.782,8.974,5.92a10.738,10.738,0,0,1,.857,9.021c-1.175,3.077-4.088,5.168-8.187,5.861a22.688,22.688,0,0,1-5.638-.059,13.6,13.6,0,0,1-7.529-3.923,13.073,13.073,0,0,1-1.926-2.854,5.526,5.526,0,0,1,.681-.435c.329-.188,1.574-.9,2.749-1.586l2.126-1.233.446.658a9.933,9.933,0,0,0,2.807,2.69c2.361,1.245,5.6,1.069,7.2-.364a2.724,2.724,0,0,0,.963-2.22,2.711,2.711,0,0,0-.552-1.879c-.576-.822-1.75-1.515-5.086-2.96-3.817-1.644-5.462-2.666-6.965-4.287a9.758,9.758,0,0,1-2.032-3.7,14.817,14.817,0,0,1-.129-4.722,9.019,9.019,0,0,1,7.588-7.024A18.744,18.744,0,0,1,168.655-235.021Z" transform="translate(-108.945 269.162)" fill="#fff"/>
</svg>
